<svg xmlns="http://www.w3.org/2000/svg" viewBox="0 0 363 313" fill="currentColor" role="img" aria-label="AdBite"><g transform="scale(0.3333333333333333)"><g transform="translate(0.000000,939.000000) scale(0.100000,-0.100000)" fill="currentColor" stroke="none">
<path d="M205 9359 c-9 -16 -34 -85 -56 -152 -66 -198 -92 -301 -114 -440 -8
-55 -20 -107 -25 -117 -13 -25 -13 -605 0 -629 5 -10 14 -52 20 -92 26 -175
74 -343 141 -496 11 -23 19 -44 19 -47 0 -12 83 -182 126 -258 67 -120 256
-367 365 -479 260 -265 610 -478 962 -585 292 -89 643 -129 907 -105 231 21
351 43 579 107 46 13 90 24 98 24 20 0 15 -26 -32 -160 -52 -150 -80 -254
-115 -430 -17 -83 -25 -160 -44 -398 -6 -75 11 -340 29 -447 28 -161 89 -386
136 -500 53 -130 106 -235 187 -370 75 -126 122 -191 239 -327 170 -199 448
-415 678 -526 80 -39 160 -75 185 -83 14 -4 50 -17 80 -29 30 -12 69 -26 85
-30 17 -5 62 -18 100 -30 39 -11 97 -25 129 -31 33 -5 63 -12 67 -15 20 -12
337 -44 439 -44 126 0 333 21 450 46 125 27 278 83 400 148 86 46 146 80 155
87 5 5 18 9 28 9 16 0 18 -5 12 -27 -7 -30 -15 -72 -42 -233 -31 -188 -21
-647 17 -790 5 -19 19 -73 30 -120 25 -103 62 -222 97 -310 34 -87 116 -251
157 -314 18 -28 55 -85 81 -126 104 -163 337 -413 495 -531 207 -155 408 -264
650 -353 247 -91 571 -150 825 -151 401 0 885 127 1250 328 201 110 309 187
492 349 101 89 252 251 331 354 18 24 42 46 53 49 19 6 19 58 19 4156 l0 4149
-5335 0 c-5334 0 -5334 0 -5350 -31z M10882 1010 c0 -14 2 -19 5 -12 2 6 2 18
0 25 -3 6 -5 1 -5 -13z"/>
</g></g></svg>